<svg width="120" height="120" viewBox="0 0 120 120" fill="none" xmlns="http://www.w3.org/2000/svg">
<path d="M33.8171 50.2023C33.8171 51.679 33.9768 52.8764 34.2562 53.7544C34.5754 54.6324 34.9746 55.5903 35.5333 56.628C35.7329 56.9473 35.8127 57.2665 35.8127 57.5459C35.8127 57.945 35.5732 58.3441 35.0544 58.7432L32.54 60.4195C32.1808 60.659 31.8216 60.7787 31.5023 60.7787C31.1032 60.7787 30.7041 60.5791 30.305 60.2199C29.7462 59.6213 29.2673 58.9827 28.8682 58.3441C28.4691 57.6656 28.07 56.9073 27.631 55.9894C24.5179 59.6612 20.6067 61.4971 15.8972 61.4971C12.5447 61.4971 9.87069 60.5392 7.91506 58.6235C5.95944 56.7078 4.96167 54.1535 4.96167 50.9606C4.96167 47.5682 6.15899 44.8144 8.59355 42.739C11.0281 40.6637 14.2609 39.626 18.3717 39.626C19.7286 39.626 21.1255 39.7457 22.6022 39.9453C24.0789 40.1448 25.5955 40.4641 27.192 40.8233V37.9098C27.192 34.8766 26.5534 32.7613 25.3161 31.5241C24.039 30.2869 21.8838 29.6882 18.8107 29.6882C17.4138 29.6882 15.977 29.8479 14.5003 30.2071C13.0236 30.5663 11.5869 31.0053 10.19 31.564C9.55141 31.8434 9.07248 32.003 8.7931 32.0829C8.51373 32.1627 8.31417 32.2026 8.15453 32.2026C7.59578 32.2026 7.3164 31.8035 7.3164 30.9654V29.0097C7.3164 28.3712 7.39622 27.8922 7.59578 27.6129C7.79533 27.3335 8.15453 27.0541 8.71328 26.7747C10.1102 26.0563 11.7864 25.4577 13.742 24.9788C15.6977 24.4599 17.773 24.2204 19.9681 24.2204C24.7175 24.2204 28.1897 25.298 30.4247 27.4532C32.6198 29.6084 33.7373 32.8811 33.7373 37.2713V50.2023H33.8171ZM17.6134 56.2688C18.9304 56.2688 20.2874 56.0293 21.7242 55.5504C23.161 55.0714 24.4381 54.1934 25.5157 52.9961C26.1543 52.2378 26.6332 51.3997 26.8727 50.4418C27.1121 49.4839 27.2718 48.3265 27.2718 46.9696V45.2933C26.1144 45.0139 24.8771 44.7745 23.6 44.6148C22.3228 44.4552 21.0856 44.3754 19.8484 44.3754C17.1744 44.3754 15.2187 44.8942 13.9017 45.9718C12.5846 47.0494 11.9461 48.566 11.9461 50.5615C11.9461 52.4373 12.425 53.8342 13.4227 54.7921C14.3806 55.7898 15.7775 56.2688 17.6134 56.2688ZM49.6617 60.5791C48.9433 60.5791 48.4644 60.4594 48.1451 60.18C47.8258 59.9406 47.5464 59.3818 47.307 58.6235L37.9279 27.7725C37.6885 26.9743 37.5687 26.4554 37.5687 26.1761C37.5687 25.5375 37.888 25.1783 38.5266 25.1783H42.4379C43.1962 25.1783 43.715 25.298 43.9944 25.5774C44.3137 25.8169 44.5531 26.3756 44.7926 27.1339L51.4976 53.5548L57.7237 27.1339C57.9232 26.3357 58.1627 25.8169 58.482 25.5774C58.8013 25.3379 59.36 25.1783 60.0784 25.1783H63.2713C64.0296 25.1783 64.5484 25.298 64.8677 25.5774C65.187 25.8169 65.4664 26.3756 65.626 27.1339L71.9319 53.8741L78.8365 27.1339C79.0759 26.3357 79.3553 25.8169 79.6347 25.5774C79.954 25.3379 80.4728 25.1783 81.1912 25.1783H84.9029C85.5415 25.1783 85.9007 25.4976 85.9007 26.1761C85.9007 26.3756 85.8607 26.5752 85.8208 26.8146C85.7809 27.0541 85.7011 27.3734 85.5415 27.8124L75.923 58.6634C75.6835 59.4616 75.4041 59.9805 75.0849 60.2199C74.7656 60.4594 74.2467 60.619 73.5682 60.619H70.1359C69.3776 60.619 68.8588 60.4993 68.5395 60.2199C68.2202 59.9406 67.9408 59.4217 67.7812 58.6235L61.595 32.8811L55.4488 58.5836C55.2492 59.3818 55.0097 59.9007 54.6905 60.18C54.3712 60.4594 53.8124 60.5791 53.094 60.5791H49.6617ZM100.947 61.6567C98.8717 61.6567 96.7963 61.4173 94.8008 60.9383C92.8052 60.4594 91.2487 59.9406 90.211 59.3419C89.5725 58.9827 89.1334 58.5836 88.9738 58.2244C88.8141 57.8652 88.7343 57.4661 88.7343 57.1069V55.0715C88.7343 54.2333 89.0536 53.8342 89.6523 53.8342C89.8917 53.8342 90.1312 53.8741 90.3707 53.954C90.6101 54.0338 90.9693 54.1934 91.3684 54.3531C92.7254 54.9517 94.2021 55.4306 95.7586 55.7499C97.355 56.0692 98.9116 56.2289 100.508 56.2289C103.022 56.2289 104.978 55.7898 106.335 54.9118C107.692 54.0338 108.41 52.7566 108.41 51.1203C108.41 50.0028 108.051 49.0848 107.333 48.3265C106.614 47.5682 105.257 46.8897 103.302 46.2512L97.5147 44.4552C94.6012 43.5372 92.446 42.1803 91.129 40.3843C89.8119 38.6282 89.1334 36.6726 89.1334 34.5972C89.1334 32.921 89.4926 31.4443 90.211 30.1671C90.9294 28.89 91.8873 27.7725 93.0846 26.8945C94.2819 25.9765 95.6389 25.298 97.2353 24.8191C98.8317 24.3402 100.508 24.1406 102.264 24.1406C103.142 24.1406 104.06 24.1805 104.938 24.3003C105.856 24.42 106.694 24.5796 107.532 24.7393C108.33 24.9388 109.089 25.1384 109.807 25.3779C110.526 25.6173 111.084 25.8568 111.483 26.0963C112.042 26.4155 112.441 26.7348 112.681 27.094C112.92 27.4133 113.04 27.8523 113.04 28.4111V30.2869C113.04 31.125 112.721 31.564 112.122 31.564C111.803 31.564 111.284 31.4044 110.605 31.0851C108.331 30.0474 105.776 29.5286 102.943 29.5286C100.668 29.5286 98.8717 29.8878 97.6344 30.6461C96.3972 31.4044 95.7586 32.5618 95.7586 34.1981C95.7586 35.3156 96.1577 36.2735 96.9559 37.0318C97.7542 37.7901 99.2309 38.5484 101.346 39.2269L107.013 41.0229C109.887 41.9408 111.962 43.218 113.2 44.8543C114.437 46.4906 115.036 48.3664 115.036 50.4418C115.036 52.158 114.676 53.7145 113.998 55.0715C113.279 56.4284 112.322 57.6257 111.084 58.5836C109.847 59.5814 108.37 60.2998 106.654 60.8186C104.858 61.3773 102.982 61.6567 100.947 61.6567Z" fill="white"/>
<path d="M108.49 81.0533C95.3595 90.7516 76.2822 95.9001 59.8789 95.9001C36.8903 95.9001 16.1766 87.3991 0.531618 73.2707C-0.705615 72.1532 0.411886 70.6366 1.88858 71.5146C18.8107 81.3327 39.6841 87.2794 61.2758 87.2794C75.8432 87.2794 91.8474 84.2462 106.574 78.0201C108.77 77.0223 110.645 79.4569 108.49 81.0533ZM113.958 74.8272C112.282 72.6721 102.863 73.7896 98.5923 74.3084C97.3152 74.468 97.1156 73.3505 98.273 72.5124C105.776 67.2442 118.109 68.7608 119.545 70.5169C120.982 72.3129 119.146 84.6453 112.122 90.5521C111.044 91.47 110.007 90.9911 110.486 89.7938C112.082 85.8426 115.634 76.9425 113.958 74.8272Z" fill="#FF9900"/>
</svg>
