<svg width="120" height="120" viewBox="0 0 120 120" fill="none" xmlns="http://www.w3.org/2000/svg">
<g clip-path="url(#clip0_2051_808)">
<path d="M60 120C93.1371 120 120 93.1371 120 60C120 26.8629 93.1371 0 60 0C26.8629 0 0 26.8629 0 60C0 93.1371 26.8629 120 60 120Z" fill="#05930C"/>
<path d="M18.2356 16.9218L103.001 101.844C92.1012 113.044 76.863 120 60 120C26.8629 120 0 93.1371 0 60C0 43.0973 6.98935 27.8271 18.2356 16.9218Z" fill="white" fill-opacity="0.1"/>
<path d="M57.0562 81.6563C52.9745 83.6422 48.4675 84.5952 43.9312 84.4313C37.8664 84.6971 31.9819 82.3324 27.7875 77.9438C23.6197 73.2719 21.4459 67.1543 21.7312 60.9C21.4379 54.1225 23.8997 47.5147 28.5562 42.5813C33.1081 37.9243 39.4105 35.3993 45.9187 35.625C49.7205 35.48 53.5115 36.1182 57.0562 37.5V43.4063C53.6182 41.4954 49.7392 40.5192 45.8062 40.575C40.8519 40.4108 36.0678 42.3928 32.6812 46.0125C29.1703 50.0148 27.3546 55.2263 27.6187 60.5438C27.359 65.5691 29.052 70.5003 32.3437 74.3063C35.5374 77.7401 40.0704 79.6094 44.7562 79.425C49.077 79.5324 53.3423 78.4352 57.075 76.2563L57.0562 81.6563ZM98.925 49.6125L98.175 53.1H89.55L87.4875 63H96.75L95.8687 66.4875H86.7937L83.8875 79.6125H79.7437L82.575 66.4875H74.325L71.55 79.6125H67.5L70.275 66.4875H61.575L62.2312 63H70.9687L72.975 53.1188H63.8437L64.5375 49.6313H73.6687L76.4437 36.375H80.625L77.85 49.6313H86.1562L88.9875 36.375H93.0375L90.2625 49.6313L98.925 49.6125ZM85.4812 53.1H77.1562L75 63H83.3625L85.4812 53.1Z" fill="white"/>
</g>
<defs>
<clipPath id="clip0_2051_808">
<rect width="120" height="120" fill="white"/>
</clipPath>
</defs>
</svg>
