<svg width="120" height="120" viewBox="0 0 120 120" fill="none" xmlns="http://www.w3.org/2000/svg">
<path d="M43.1719 83.625C36.7969 77.625 33.0469 69.375 33.0469 60C33.0469 50.625 36.7969 42.375 42.7969 36.375C48.0469 31.125 48.0469 22.875 42.7969 17.625C37.5469 12.375 29.2969 12.375 24.0469 17.625C13.5469 28.5 6.79688 43.5 6.79688 60C6.79688 76.5 13.5469 91.5 24.4219 102.375C29.6719 107.625 37.9219 107.625 43.1719 102.375C48.0469 97.125 48.0469 88.875 43.1719 83.625Z" fill="#FAE501"/>
<path d="M43.0781 36.375C49.0781 30 57.3281 26.25 66.7031 26.25C76.0781 26.25 84.3281 30 90.3281 36C95.5781 41.25 103.828 41.25 109.078 36C114.328 30.75 114.328 22.5 109.078 17.25C98.2031 6.75 83.2031 0 66.7031 0C50.2031 0 35.2031 6.75 24.3281 17.625C19.0781 22.875 19.0781 31.125 24.3281 36.375C29.5781 41.25 37.8281 41.25 43.0781 36.375Z" fill="#4FB5E1"/>
<path d="M90.4219 83.625C84.4219 90 76.1719 93.75 66.7969 93.75C57.4219 93.75 49.1719 90 43.1719 84C37.9219 78.75 29.6719 78.75 24.4219 84C19.1719 89.25 19.1719 97.5 24.4219 102.75C35.2969 113.25 50.2969 120 66.7969 120C83.2969 120 98.2969 113.25 109.172 102.375C114.422 97.125 114.422 88.875 109.172 83.625C103.922 78.75 95.6719 78.75 90.4219 83.625Z" fill="#F05751"/>
<path d="M33.7969 40.125C41.0456 40.125 46.9219 34.2487 46.9219 27C46.9219 19.7513 41.0456 13.875 33.7969 13.875C26.5481 13.875 20.6719 19.7513 20.6719 27C20.6719 34.2487 26.5481 40.125 33.7969 40.125Z" fill="#0681B6"/>
<path d="M33.7969 106.125C41.0456 106.125 46.9219 100.249 46.9219 93C46.9219 85.7513 41.0456 79.875 33.7969 79.875C26.5481 79.875 20.6719 85.7513 20.6719 93C20.6719 100.249 26.5481 106.125 33.7969 106.125Z" fill="#CD4739"/>
</svg>
