<svg width="120" height="120" viewBox="0 0 120 120" fill="none" xmlns="http://www.w3.org/2000/svg">
<g clip-path="url(#clip0_2051_787)">
<path d="M24.4729 95.5271L3.94354 74.9978C1.5086 72.5011 0 68.9722 0 65.5227C0 63.9259 0.899868 61.4292 1.57918 60L20.5293 20.5293L24.4729 95.5271Z" fill="#01579B"/>
<path d="M94.7421 24.4729L74.2128 3.94354C72.4219 2.1438 68.6901 0 65.5317 0C62.8145 0 60.1502 0.546978 58.4298 1.57918L20.5383 20.5293L94.7421 24.4729Z" fill="#40C4FF"/>
<path d="M48.9459 120H98.6856V98.6855L61.5793 86.8373L27.6313 98.6855L48.9459 120Z" fill="#40C4FF"/>
<path d="M20.5293 84.4728C20.5293 90.8072 21.3233 92.3599 24.4728 95.5271L27.6312 98.6854H98.6854L63.9523 59.2148L20.5293 20.5293V84.4728Z" fill="#29B6F6"/>
<path d="M83.6877 20.5205H20.5293L98.6854 98.6767H120V49.7309L94.7331 24.464C91.1866 20.9087 88.037 20.5205 83.6877 20.5205Z" fill="#01579B"/>
<path opacity="0.2" d="M25.2668 96.3123C22.1084 93.1451 21.3232 90.022 21.3232 84.4728V21.3145L20.5381 20.5293V84.4728C20.5292 90.022 20.5292 91.5571 25.2668 96.3123L27.6311 98.6766L25.2668 96.3123Z" fill="white"/>
<path opacity="0.2" d="M119.215 48.9458V97.8915H97.9004L98.6856 98.6855H120V49.731L119.215 48.9458Z" fill="#263238"/>
<path opacity="0.2" d="M94.7421 24.4728C90.8251 20.5558 87.6226 20.5293 82.9027 20.5293H20.5383L21.3235 21.3145H82.9027C85.2582 21.3145 91.2044 20.9175 94.7421 24.4728Z" fill="white"/>
<path opacity="0.2" d="M119.215 48.9457L94.7422 24.4729L74.2128 3.94354C72.4219 2.1438 68.6901 0 65.5318 0C62.8145 0 60.1502 0.546978 58.4299 1.57918L20.5384 20.5293L1.58821 60C0.908901 61.438 0.0090332 63.9347 0.0090332 65.5227C0.0090332 68.9722 1.52646 72.4923 3.95257 74.9978L22.8674 93.7803C23.3174 94.3361 23.8467 94.9008 24.4731 95.5271L25.2583 96.3123L27.6226 98.6767L48.152 119.206L48.9371 119.991H97.8829H98.6681V98.6767H119.983V98.6237V49.7309L119.215 48.9457Z" fill="url(#paint0_radial_2051_787)"/>
</g>
<defs>
<radialGradient id="paint0_radial_2051_787" cx="0" cy="0" r="1" gradientUnits="userSpaceOnUse" gradientTransform="translate(59.9958 59.9887) scale(59.9912 59.9912)">
<stop stop-color="white" stop-opacity="0.1"/>
<stop offset="1" stop-color="white" stop-opacity="0"/>
</radialGradient>
<clipPath id="clip0_2051_787">
<rect width="120" height="120" fill="white"/>
</clipPath>
</defs>
</svg>
