<svg width="120" height="120" viewBox="0 0 120 120" fill="none" xmlns="http://www.w3.org/2000/svg">
<path d="M93.5412 33.7493L96.1308 35.6242C100.634 39.2569 103.224 43.3583 103.787 48.0456C108.628 47.1082 114.821 47.8112 117.523 49.6862L120 51.2095L119.55 52.147C118.761 53.9048 118.536 54.3735 118.424 54.6078C114.033 63.3966 105.363 63.5137 101.31 63.3966C91.0642 89.0596 69.2216 103.239 39.7228 103.239C26.0994 103.239 15.741 98.9029 8.76042 90.3486C-0.472017 79.099 -0.472018 64.4512 0.316117 59.7639L0.541298 58.8264H81.9443C86.2228 58.8264 89.4879 57.6546 91.0642 56.7171C89.3753 54.1391 88.8124 51.2095 88.6998 49.569C88.362 44.8817 89.4879 39.96 91.7397 36.4445L93.5412 33.7493ZM21.7083 44.7645V56.4828H9.32337V44.7645H21.7083ZM36.3451 44.7645V56.4828H23.9602V44.7645H36.3451ZM50.9819 44.7645V56.4828H38.5969V44.7645H50.9819ZM65.6187 44.7645V56.4828H53.2337V44.7645H65.6187ZM80.2555 44.7645V56.4828H67.8705V44.7645H80.2555ZM65.6187 30.7026V42.4208H53.2337V30.7026H65.6187ZM50.9819 30.7026V42.4208H38.5969V30.7026H50.9819ZM36.3451 30.7026V42.4208H23.9602V30.7026H36.3451ZM65.6187 16.6406V28.3589H53.2337V16.6406H65.6187Z" fill="#2396ED"/>
</svg>
