<svg width="120" height="120" viewBox="0 0 120 120" fill="none" xmlns="http://www.w3.org/2000/svg">
<path d="M56.8635 44.1161C57.8449 42.5084 58.9191 42.3039 59.7906 42.3039C60.6621 42.3039 62.1139 42.5084 63.0956 44.1161C70.831 55.9257 83.5995 79.4508 93.0183 96.8041C99.1605 108.121 103.878 116.813 104.846 117.919C108.479 122.071 113.463 119.484 116.358 114.773C119.209 110.136 120 106.88 120 103.407C120 101.041 78.7009 15.6677 74.5417 8.56145C70.5418 1.72644 69.239 0 62.3932 0H57.2703C50.4448 0 49.4585 1.72644 45.4582 8.56145C41.2994 15.6677 0 101.041 0 103.407C0 106.88 0.791382 110.136 3.6421 114.773C6.53766 119.484 11.5207 122.071 15.154 117.919C16.122 116.813 20.8397 108.121 26.982 96.8041C36.4006 79.4508 49.1281 55.9257 56.8635 44.1161Z" fill="#FDF7E9"/>
</svg>
