<svg width="120" height="120" viewBox="0 0 120 120" fill="none" xmlns="http://www.w3.org/2000/svg">
<path fill-rule="evenodd" clip-rule="evenodd" d="M117.737 54.6543L65.3428 2.26338C62.3277 -0.75446 57.4337 -0.75446 54.4146 2.26338L43.535 13.1431L57.3362 26.9446C60.5436 25.861 64.221 26.5878 66.778 29.1448C69.3468 31.7176 70.0683 35.4267 68.9584 38.6447L82.2593 51.9458C85.4772 50.8372 89.1902 51.5548 91.7603 54.1289C95.3521 57.7195 95.3521 63.5392 91.7603 67.1325C88.1671 70.7257 82.3475 70.7257 78.753 67.1325C76.0512 64.428 75.3837 60.4595 76.7517 57.1309L64.3474 44.7265L64.3461 77.3697C65.2217 77.8042 66.0486 78.3822 66.778 79.109C70.3698 82.6996 70.3698 88.5194 66.778 92.1152C63.1848 95.7072 57.3626 95.7072 53.7747 92.1152C50.1828 88.5194 50.1828 82.6996 53.7747 79.109C54.6621 78.2229 55.6891 77.5527 56.7846 77.1024V44.155C55.6891 43.7073 54.6634 43.0411 53.7747 42.1484C51.0531 39.4308 50.3988 35.4372 51.7931 32.0955L38.1894 18.4889L2.26432 54.412C-0.754775 57.4325 -0.754775 62.3266 2.26432 65.3444L54.6581 117.737C57.6746 120.754 62.5673 120.754 65.5877 117.737L117.737 65.588C120.754 62.5688 120.754 57.6721 117.737 54.6543Z" fill="#DE4C36"/>
</svg>
