<svg width="120" height="120" viewBox="0 0 120 120" fill="none" xmlns="http://www.w3.org/2000/svg">
<path d="M103.294 0C109.198 0 113.997 4.73829 114.092 10.6214L114.094 10.8V109.2C114.094 115.104 109.354 119.903 103.472 119.999L103.294 120H16.8938C10.9894 120 6.19058 115.26 6.0952 109.379L6.09375 109.2V10.8C6.09375 4.89416 10.8335 0.0968031 16.7152 0.00144665L16.8938 0H103.294ZM103.294 6H16.8938C14.2891 6 12.1612 8.08721 12.0953 10.6763L12.0938 10.8V109.2C12.0938 111.805 14.181 113.933 16.7701 113.998L16.8938 114H103.294C105.9 114 108.026 111.913 108.092 109.324L108.094 109.2V10.8C108.094 8.154 105.941 6 103.294 6ZM33.0938 78L46.5938 90L33.0938 102V78ZM45.0938 18V52.0665C51.0847 50.1165 59.4592 48 67.5937 48C75.0112 48 79.4512 50.916 81.8692 53.3625C86.9776 58.5303 87.0993 65.0992 87.0925 65.9752L87.0922 66L87.0938 102H75.0938V66.165C75.0352 63.3645 73.6852 60 67.5937 60C55.5148 60 41.9803 66.0144 41.5784 66.1943L41.5703 66.198L33.0938 70.038V18H45.0938ZM87.0938 18C86.2838 24.816 83.5208 31.35 78.0938 37.5H66.0938C70.8098 31.3125 73.7708 24.801 75.0938 18H87.0938Z" fill="#430098"/>
</svg>
