<svg width="120" height="120" viewBox="0 0 120 120" fill="none" xmlns="http://www.w3.org/2000/svg">
<g clip-path="url(#clip0_2051_763)">
<path d="M44.4403 92.8026C44.4403 92.8026 39.8546 95.4694 47.7038 96.3718C57.2129 97.4566 62.0729 97.301 72.552 95.3177C72.552 95.3177 75.307 97.0452 79.1547 98.5414C55.6633 108.609 25.9891 97.9582 44.4403 92.8026Z" fill="#5382A1"/>
<path d="M41.5706 79.6646C41.5706 79.6646 36.4273 83.4717 44.2823 84.2842C54.4402 85.3322 62.4621 85.4179 76.3431 82.745C76.3431 82.745 78.2631 84.6914 81.2821 85.7559C52.8796 94.0611 21.2444 86.4108 41.5706 79.6646Z" fill="#5382A1"/>
<path d="M65.7695 57.378C71.5578 64.0421 64.2487 70.039 64.2487 70.039C64.2487 70.039 78.9461 62.4518 72.1962 52.9508C65.8921 44.0905 61.0577 39.6882 87.2293 24.5095C87.2293 24.5095 46.1484 34.7696 65.7695 57.378Z" fill="#E76F00"/>
<path d="M96.8388 102.52C96.8388 102.52 100.232 105.316 93.1014 107.48C79.5419 111.587 36.6653 112.828 24.7544 107.643C20.4727 105.781 28.502 103.196 31.0278 102.653C33.6619 102.082 35.1671 102.188 35.1671 102.188C30.4055 98.8341 4.3897 108.775 21.9524 111.622C69.8485 119.389 109.262 108.124 96.8388 102.52Z" fill="#5382A1"/>
<path d="M46.6464 66.052C46.6464 66.052 24.8366 71.2322 38.923 73.1133C44.8707 73.9096 56.7273 73.7295 67.7715 72.8041C76.7973 72.0427 85.8604 70.4239 85.8604 70.4239C85.8604 70.4239 82.6778 71.7869 80.3752 73.3591C58.2277 79.1839 15.443 76.4742 27.7602 70.5161C38.1768 65.4808 46.6464 66.052 46.6464 66.052Z" fill="#5382A1"/>
<path d="M85.7701 87.9209C108.284 76.2218 97.8745 64.9791 90.6088 66.4937C88.8279 66.8644 88.0339 67.1856 88.0339 67.1856C88.0339 67.1856 88.695 66.1499 89.9577 65.7016C104.332 60.6482 115.386 80.606 85.3176 88.5105C85.3176 88.5108 85.666 88.1994 85.7701 87.9209Z" fill="#5382A1"/>
<path d="M72.1969 0C72.1969 0 84.6654 12.4728 60.371 31.6523C40.8893 47.0377 55.9286 55.81 60.3629 65.8327C48.9911 55.5726 40.6458 46.5405 46.2445 38.1344C54.4621 25.7949 77.2276 19.8122 72.1969 0Z" fill="#E76F00"/>
<path d="M48.8581 119.623C70.4687 121.006 103.654 118.855 104.44 108.63C104.44 108.63 102.929 112.506 86.5801 115.585C68.1351 119.056 45.3857 118.651 31.8928 116.426C31.8931 116.426 34.655 118.712 48.8581 119.623Z" fill="#5382A1"/>
</g>
<defs>
<clipPath id="clip0_2051_763">
<rect width="120" height="120" fill="white"/>
</clipPath>
</defs>
</svg>
