<svg width="120" height="120" viewBox="0 0 120 120" fill="none" xmlns="http://www.w3.org/2000/svg">
<mask id="mask0_2051_469" style="mask-type:luminance" maskUnits="userSpaceOnUse" x="3" y="1" width="114" height="118">
<path d="M116.953 1.40625H3.28125V118.594H116.953V1.40625Z" fill="white"/>
</mask>
<g mask="url(#mask0_2051_469)">
<mask id="mask1_2051_469" style="mask-type:luminance" maskUnits="userSpaceOnUse" x="3" y="1" width="114" height="118">
<path d="M116.918 1.40625H3.28125V118.594H116.918V1.40625Z" fill="white"/>
</mask>
<g mask="url(#mask1_2051_469)">
<path fill-rule="evenodd" clip-rule="evenodd" d="M116.477 71.5793C115.796 69.5159 114.011 68.0784 111.703 67.7334C110.615 67.571 109.368 67.6402 107.893 67.9444C105.322 68.4748 103.415 68.6766 102.023 68.7159C107.277 59.8446 111.549 49.7283 114.009 40.2054C117.986 24.8074 115.861 17.7927 113.377 14.6195C106.805 6.22149 97.2153 1.70963 85.6461 1.57132C79.4752 1.496 74.0572 2.71452 71.2311 3.59054C68.5998 3.12655 65.7701 2.86726 62.8011 2.81921C57.2365 2.73053 52.3196 3.94351 48.1182 6.4367C45.7915 5.65042 42.0589 4.54161 37.7478 3.83382C27.6083 2.16916 19.4363 3.46639 13.459 7.68906C6.22091 12.8019 2.86537 21.685 3.48604 34.0917C3.68287 38.0311 5.88655 50.0159 9.35601 61.3824C11.35 67.9153 13.4763 73.3406 15.6758 77.5088C18.7949 83.4192 22.1324 86.8999 25.8793 88.1496C27.9795 88.8495 31.7951 89.3393 35.8086 85.9974C36.3172 86.6131 36.9957 87.2252 37.8966 87.7938C39.0404 88.5152 40.4391 89.1047 41.8358 89.4539C46.8701 90.7125 51.5858 90.3977 55.6086 88.6338C55.6334 89.3492 55.6524 90.0328 55.6688 90.6232C55.6955 91.5809 55.7218 92.5195 55.7569 93.3973C55.9953 99.3342 56.3991 103.95 57.5958 107.18C57.6615 107.358 57.7498 107.629 57.8433 107.915C58.4401 109.744 59.4387 112.804 61.9784 115.2C64.6088 117.683 67.79 118.444 70.7037 118.444C72.1648 118.444 73.5594 118.253 74.7819 117.99C79.1412 117.056 84.0919 115.633 87.6732 110.534C91.059 105.713 92.705 98.4523 93.0029 87.0115C93.0415 86.6881 93.0772 86.3792 93.1116 86.0848C93.1346 85.886 93.1583 85.6831 93.1822 85.4803L93.98 85.5504L94.1855 85.5642C98.6253 85.7667 104.054 84.825 107.388 83.2765C110.023 82.0538 118.465 77.5969 116.477 71.5793Z" fill="black"/>
<path fill-rule="evenodd" clip-rule="evenodd" d="M108.886 72.7498C95.6844 75.4727 94.7769 71.0032 94.7769 71.0032C108.715 50.3208 114.542 24.0677 109.514 17.6424C95.7959 0.115321 72.05 8.40447 71.6537 8.61967L71.5262 8.6425C68.918 8.10109 65.9991 7.77857 62.7186 7.72501C56.7453 7.62714 52.2141 9.29099 48.7761 11.8983C48.7761 11.8983 6.41537 -5.55259 8.3855 33.8461C8.80461 42.2281 20.3989 97.2666 34.2282 80.6424C39.2827 74.5634 44.1664 69.4235 44.1664 69.4235C46.5922 71.0349 49.4961 71.8568 52.5404 71.5617L52.7769 71.3609C52.7035 72.1156 52.737 72.8538 52.8716 73.7278C49.3091 77.7082 50.3558 78.4071 43.2341 79.8731C36.0277 81.3581 40.2612 84.0024 43.0252 84.6933C46.3761 85.5312 54.1283 86.7183 59.3663 79.3856L59.1573 80.2224C60.5532 81.3403 61.5334 87.4948 61.3691 93.0738C61.205 98.6529 61.0951 102.483 62.195 105.475C63.2949 108.467 64.3911 115.199 73.7534 113.192C81.5764 111.516 85.6304 107.172 86.1943 99.9249C86.5946 94.7728 87.5002 95.5345 87.5574 90.9284L88.284 88.7477C89.1216 81.7641 88.4171 79.511 93.2368 80.5589L94.408 80.6618C97.9555 80.8231 102.598 80.0911 105.323 78.8245C111.191 76.1016 114.671 71.5552 108.885 72.7498H108.886Z" fill="#336791"/>
<path fill-rule="evenodd" clip-rule="evenodd" d="M51.2555 37.5944C50.066 37.429 48.9886 37.5822 48.4435 37.9947C48.1367 38.227 48.042 38.4961 48.0164 38.6812C47.948 39.1718 48.2918 39.7141 48.5028 39.9937C49.1002 40.7855 49.973 41.3299 50.8369 41.4499C50.9621 41.467 51.0865 41.4755 51.2103 41.4755C52.6512 41.4755 53.9607 40.3537 54.0762 39.5259C54.2206 38.489 52.7152 37.7976 51.2555 37.5944Z" fill="white"/>
<path fill-rule="evenodd" clip-rule="evenodd" d="M90.6661 37.6273H90.6659C90.5524 36.8147 89.1059 36.5829 87.7334 36.7737C86.3627 36.9647 85.0336 37.5832 85.1447 38.3979C85.2338 39.0314 86.3773 40.1131 87.7315 40.1126C87.8456 40.1126 87.9612 40.1051 88.0774 40.0889C88.9812 39.9635 89.6445 39.3898 89.9592 39.0589C90.4392 38.555 90.7167 37.9927 90.6661 37.6273Z" fill="white"/>
<path fill-rule="evenodd" clip-rule="evenodd" d="M113.279 72.4402C112.775 70.9182 111.155 70.4281 108.463 70.9842C100.471 72.6338 97.6091 71.491 96.669 70.7991C102.881 61.3348 107.992 49.8954 110.749 39.2217C112.055 34.1658 112.776 29.4706 112.835 25.6437C112.9 21.4425 112.185 18.3559 110.709 16.4703C104.76 8.86847 96.0292 4.79095 85.4598 4.67887C78.1939 4.59726 72.0549 6.45691 70.8648 6.97969C68.3586 6.35639 65.6263 5.97377 62.6521 5.92495C57.1972 5.83676 52.4825 7.14267 48.5788 9.80433C46.8831 9.17341 42.501 7.66912 37.1422 6.80597C27.8769 5.31398 20.5147 6.4443 15.2607 10.1665C8.99151 14.608 6.09733 22.5473 6.65816 33.7634C6.84686 37.5373 8.99676 49.1459 12.3901 60.2632C16.8566 74.8957 21.7114 83.1792 26.8201 84.8831C27.418 85.0826 28.1075 85.2221 28.8676 85.2221C30.7311 85.2221 33.0158 84.3821 35.3928 81.5243C39.3414 76.7742 43.0278 72.7938 44.3867 71.3475C46.3949 72.4256 48.6008 73.0273 50.8574 73.0878C50.8614 73.1468 50.8675 73.2059 50.8726 73.2647C50.42 73.8017 50.0485 74.2721 49.7321 74.674C48.1689 76.6585 47.8433 77.0717 42.8108 78.1078C41.3795 78.4032 37.577 79.1869 37.5217 81.852C37.461 84.7636 42.0156 85.9866 42.5347 86.1162C44.3432 86.569 46.0853 86.7924 47.7467 86.7924C51.7878 86.7921 55.3435 85.4642 58.1856 82.8945C58.0979 93.2754 58.531 103.504 59.7772 106.621C60.7979 109.172 63.2919 115.408 71.1695 115.407C72.325 115.407 73.5976 115.273 74.9973 114.973C83.2185 113.21 86.7882 109.577 88.1696 101.566C88.9086 97.2849 90.1771 87.0614 90.7733 81.5775C92.0321 81.9703 93.6531 82.1501 95.405 82.1499C99.0592 82.1499 103.276 81.3734 105.92 80.146C108.89 78.7667 114.251 75.3811 113.279 72.4402ZM93.7004 35.3838C93.6732 37.0027 93.4503 38.4724 93.2141 40.0067C92.96 41.6567 92.6971 43.3624 92.631 45.4334C92.5656 47.4488 92.8173 49.5441 93.0608 51.57C93.5528 55.6624 94.0574 59.876 92.1036 64.0336C91.7999 63.4943 91.5067 62.9058 91.2381 62.2542C90.9953 61.6655 90.4679 60.72 89.7381 59.4113C86.8974 54.3171 80.2457 42.3884 83.6509 37.5206C84.665 36.0713 87.2389 34.5821 93.7004 35.3838ZM85.8685 7.95729C95.3385 8.16644 102.829 11.7091 108.133 18.4864C112.201 23.6848 107.722 47.3384 94.7542 67.7445C94.6262 67.5818 94.4957 67.4175 94.3607 67.249C94.307 67.1815 94.2521 67.1131 94.1968 67.0437C97.5477 61.5096 96.8924 56.0344 96.309 51.1798C96.0695 49.1876 95.8433 47.3058 95.9007 45.5386C95.9603 43.6648 96.208 42.0584 96.4475 40.5047C96.7421 38.5901 97.0417 36.6092 96.9589 34.2736C97.0206 34.0289 97.0454 33.7392 97.0133 33.3959C96.8021 31.1562 94.2456 24.4542 89.034 18.3874C86.1838 15.0697 82.0264 11.3564 76.3503 8.85194C78.7918 8.34595 82.1305 7.87408 85.8685 7.95729ZM32.8775 79.4328C30.2586 82.5814 28.45 81.9781 27.8551 81.78C23.9797 80.4872 19.4833 72.2967 15.5189 59.3084C12.0886 48.0699 10.0838 36.769 9.92528 33.6C9.42428 23.5779 11.8537 16.5931 17.1463 12.8397C25.7596 6.73141 39.9207 10.3875 45.6111 12.2419C45.5291 12.3224 45.444 12.398 45.3629 12.4799C36.0257 21.9101 36.2471 38.0217 36.2701 39.0066C36.2692 39.3865 36.301 39.9246 36.3449 40.6646C36.5054 43.3744 36.8042 48.4179 36.0057 54.1296C35.2632 59.4373 36.8994 64.6322 40.4938 68.3825C40.866 68.7706 41.2543 69.135 41.6556 69.4781C40.0555 71.1917 36.5783 74.9803 32.8775 79.4328ZM42.8556 66.1189C39.9587 63.0964 38.6429 58.8919 39.2455 54.5827C40.089 48.5489 39.7775 43.294 39.6104 40.471C39.587 40.076 39.5664 39.7299 39.5539 39.4566C40.918 38.2472 47.2396 34.86 51.7473 35.8929C53.8049 36.3642 55.0581 37.7649 55.5793 40.1747C58.2765 52.6491 55.9365 57.8487 54.0561 62.0267C53.6685 62.8875 53.3024 63.701 52.9895 64.5429L52.7474 65.1935C52.1338 66.8389 51.5628 68.3682 51.2092 69.8208C48.1297 69.8114 45.1337 68.4961 42.8556 66.1189ZM43.3283 82.9425C42.4293 82.718 41.6204 82.3278 41.1458 82.0041C41.5421 81.8175 42.2476 81.5639 43.4708 81.312C49.3911 80.093 50.3052 79.2331 52.3018 76.6978C52.7598 76.1168 53.2787 75.4578 53.9973 74.6553C53.9975 74.6548 53.998 74.6543 53.998 74.6543C55.0686 73.456 55.558 73.6589 56.4458 74.0271C57.1656 74.325 57.8661 75.2269 58.1504 76.2195C58.2847 76.6882 58.4359 77.5781 57.9418 78.27C53.7709 84.1099 47.6933 84.035 43.3283 82.9425ZM74.3115 111.774C67.0689 113.326 64.5046 109.631 62.8147 105.406C61.7239 102.679 61.1882 90.3802 61.5683 76.7986C61.5735 76.6177 61.5477 76.4433 61.4978 76.2792C61.4544 75.9624 61.3878 75.642 61.2955 75.3195C60.7297 73.3432 59.3516 71.6902 57.6983 71.0051C57.0414 70.7328 55.8355 70.2333 54.3866 70.6041C54.6957 69.331 55.2315 67.8935 55.8123 66.3368L56.056 65.6817C56.3307 64.9435 56.6748 64.1787 57.039 63.3694C59.0068 58.9976 61.7017 53.01 58.7769 39.4831C57.6812 34.4168 54.0228 31.9428 48.4766 32.5172C45.1515 32.8613 42.1098 34.2028 40.5927 34.9721C40.2664 35.1373 39.9681 35.2969 39.6894 35.4525C40.1127 30.3476 41.7128 20.8076 47.6975 14.7718C51.4653 10.9717 56.4836 9.09494 62.5979 9.19598C74.6453 9.39335 82.3707 15.5759 86.7306 20.7278C90.4874 25.1674 92.5217 29.6396 93.3339 32.0513C87.2282 31.4306 83.0755 32.636 80.9703 35.6454C76.3906 42.1917 83.4758 54.8979 86.881 61.0046C87.5054 62.1237 88.0445 63.091 88.2139 63.5018C89.3228 66.1892 90.7583 67.9833 91.8064 69.293C92.1278 69.6945 92.4395 70.0835 92.6764 70.4234C90.8272 70.9568 87.5057 72.1882 87.8082 78.3455C87.564 81.435 85.8278 95.8997 84.946 101.01C83.7819 107.762 81.2973 110.277 74.3115 111.774ZM104.542 77.1788C102.651 78.0567 99.4869 78.7151 96.4808 78.8564C93.1604 79.0121 91.4703 78.4845 91.0726 78.1601C90.8858 74.3234 92.3143 73.9224 93.8256 73.4979C94.0632 73.4309 94.2948 73.3662 94.5184 73.2879C94.6576 73.4011 94.8097 73.5134 94.9764 73.6233C97.6452 75.3849 102.405 75.575 109.125 74.1879C109.15 74.1825 109.174 74.1778 109.199 74.1729C108.293 75.0204 106.742 76.1578 104.542 77.1788Z" fill="white"/>
</g>
</g>
</svg>
