<svg width="120" height="120" viewBox="0 0 120 120" fill="none" xmlns="http://www.w3.org/2000/svg">
<path fill-rule="evenodd" clip-rule="evenodd" d="M15.9858 116.983C15.9858 116.983 16.1621 89.2895 16.1621 61.1377C16.1621 6.60959 11.5675 2.54822 36.0334 2.54822H104.133V81.2C104.133 107.091 108.973 117.234 81.7632 117.234C54.5536 117.234 15.9858 116.983 15.9858 116.983Z" fill="#A62C39"/>
<path fill-rule="evenodd" clip-rule="evenodd" d="M72.1323 12.835C72.1323 12.835 76.4961 13.7077 80.278 20.1078C84.0598 26.508 104.133 76.2544 104.133 76.2544V35.8172L85.5144 5.56209L90.7509 11.9622L100.642 3.81659L87.8417 2.94385L72.1323 12.835Z" fill="url(#paint0_linear_2051_683)"/>
<path opacity="0.668224" fill-rule="evenodd" clip-rule="evenodd" d="M33.4407 3.23476C33.4407 3.23476 62.2413 22.4352 76.2052 26.2171C90.1691 29.9989 104.424 34.0831 104.424 34.0831L71.5505 115.528L85.8054 116.11L104.424 70.4409L103.842 2.94385L33.4407 3.23476Z" fill="url(#paint1_radial_2051_683)"/>
<path fill-rule="evenodd" clip-rule="evenodd" d="M60.2051 89.0547L89.4731 117.187L34.3136 116.692C34.3136 116.692 32.5682 98.9458 33.15 89.6366C33.7318 80.3273 36.641 80.3273 36.641 80.3273L60.2051 89.0547Z" fill="white" fill-opacity="0.439614"/>
<path fill-rule="evenodd" clip-rule="evenodd" d="M87.8418 117.273L60.7867 89.3456L36.059 80.0363L16.8586 37.2718L37.2226 3.23474L24.1772 3.23474L18.0222 7.88938L15.9858 11.9622L15.9858 117.273H87.8418Z" fill="black" fill-opacity="0.362319"/>
<path opacity="0.5" fill-rule="evenodd" clip-rule="evenodd" d="M104.424 72.7634C104.424 72.7634 77.078 81.4909 60.7868 89.6365C44.4955 97.7821 35.7681 117.564 35.7681 117.564C35.7681 117.564 70.6779 115.819 83.769 116.401C96.8602 116.983 102.969 116.983 104.133 98.6549C105.297 80.3272 104.424 72.7634 104.424 72.7634Z" fill="#83222D"/>
<path fill-rule="evenodd" clip-rule="evenodd" d="M24.415 90.1376V107.319H28.7975V102.844L32.7857 106.833H39.51L34.1769 101.499C34.1769 101.499 38.0137 101.437 38.3043 95.888C38.3043 90.797 34.4628 90.1376 30.0264 90.1376H24.415ZM29.0061 94.7982H32.7857V97.859H29.0061V94.7982Z" fill="white"/>
<path fill-rule="evenodd" clip-rule="evenodd" d="M47.9734 90.2071C45.574 90.1935 42.2461 90.416 42.2461 94.9373V106.879H46.7444V103.957H51.1037V106.809H55.6252V94.288C55.6252 90.3607 51.2619 90.2071 48.9241 90.2071C48.6318 90.2071 48.3162 90.2093 47.9734 90.2071ZM46.814 94.5199H51.0341V99.2269H46.814V94.5199Z" fill="white"/>
<rect x="60.1321" y="90.2184" width="4.65464" height="16.4367" fill="white"/>
<path fill-rule="evenodd" clip-rule="evenodd" d="M69.6597 90.4365V106.873H80.8599V102.509H74.2416V90.3638L69.6597 90.4365Z" fill="white"/>
<path fill-rule="evenodd" clip-rule="evenodd" d="M95.6966 90.2911V94.7276H88.2055V96.3276H91.4056C93.0783 96.3276 96.5693 96.2549 96.5693 101.491C96.5693 106.728 94.1693 107.019 89.2964 107.019H83.4054V103.019H90.1692C92.2056 103.019 92.3179 102.356 92.3179 101.778C92.3179 101.2 91.2767 100.932 89.1593 100.932C87.0419 100.932 83.1145 99.8913 83.1145 95.8185C83.1145 91.7457 85.1509 90.2184 89.2237 90.2184C93.2965 90.2184 95.6966 90.2911 95.6966 90.2911V90.2911Z" fill="white"/>
<path fill-rule="evenodd" clip-rule="evenodd" d="M28.4953 85.2729H67.187C67.187 85.2729 58.605 65.7815 60.7868 47.8903C62.9687 29.999 77.0781 21.8534 85.0782 20.9806C93.0784 20.1079 97.4421 25.0534 97.4421 25.0534L99.1876 22.4352C99.1876 22.4352 87.6965 10.7986 73.1507 12.1077C58.605 13.4168 48.5684 23.017 42.3137 34.6536C36.0591 46.2902 32.4226 54.4359 29.9498 66.6543C27.4771 78.8727 28.4953 85.2729 28.4953 85.2729Z" fill="white"/>
<path fill-rule="evenodd" clip-rule="evenodd" d="M20.7858 65.7815L28.3496 66.3633L27.0405 73.9271L19.9131 73.0544L20.7858 65.7815Z" fill="white"/>
<path fill-rule="evenodd" clip-rule="evenodd" d="M32.7135 49.7812L34.7499 44.1084L28.0588 41.4901L25.877 47.5993L32.7135 49.7812Z" fill="white"/>
<path fill-rule="evenodd" clip-rule="evenodd" d="M42.1681 30.29L46.0955 25.6353L41.0044 22.2898L36.9316 26.799L42.1681 30.29Z" fill="white"/>
<path fill-rule="evenodd" clip-rule="evenodd" d="M52.4956 12.2532L55.9866 16.4714L60.7867 13.7077L57.2957 9.7804L52.4956 12.2532Z" fill="white"/>
<path fill-rule="evenodd" clip-rule="evenodd" d="M69.5142 7.45312L70.3869 11.6714L76.3507 11.5259L75.7688 7.74404L69.5142 7.45312Z" fill="white"/>
<path fill-rule="evenodd" clip-rule="evenodd" d="M89.7329 11.9623L89.5874 14.5805L93.6602 16.7624L94.533 15.4533L89.7329 11.9623Z" fill="white"/>
<path fill-rule="evenodd" clip-rule="evenodd" d="M88.8601 23.1625V25.3443L92.7875 25.7807V24.0352L88.8601 23.1625Z" fill="white"/>
<path fill-rule="evenodd" clip-rule="evenodd" d="M76.3506 25.0535L78.2415 28.5445L81.0052 26.3626L80.4234 24.0353L76.3506 25.0535Z" fill="white"/>
<path fill-rule="evenodd" clip-rule="evenodd" d="M70.3869 29.5626L73.296 33.9264L71.5505 36.981L67.3323 32.3263L70.3869 29.5626Z" fill="white"/>
<path fill-rule="evenodd" clip-rule="evenodd" d="M64.5687 41.6356L62.6777 45.4175L67.6233 49.6358L68.7869 44.8357L64.5687 41.6356Z" fill="white"/>
<path fill-rule="evenodd" clip-rule="evenodd" d="M62.5321 54.8722L62.2412 59.9632L68.3504 62.5814L68.0595 57.7813L62.5321 54.8722Z" fill="white"/>
<path fill-rule="evenodd" clip-rule="evenodd" d="M64.2778 72.9089L65.7324 78.1454L73.4417 78.5818L70.678 72.9089H64.2778Z" fill="white"/>
<path fill-rule="evenodd" clip-rule="evenodd" d="M17.0988 116.99C17.0991 116.935 17.0991 116.935 17.1007 116.671C17.103 116.306 17.103 116.306 17.1063 115.744C17.1124 114.729 17.1191 113.55 17.1263 112.222C17.147 108.426 17.1677 104.191 17.187 99.6217C17.2421 86.5674 17.2751 73.4558 17.2751 61.1377C17.2751 54.7904 17.2207 49.2476 17.1038 41.4919C16.7466 17.7948 16.9183 13.2815 18.8963 9.02262C20.8833 4.74428 24.6139 3.66117 36.0335 3.66117H104.133L103.02 2.54818V81.1999C103.02 83.6138 103.046 85.6965 103.109 89.2047C103.353 102.726 103.053 106.571 100.871 110.134C98.3181 114.302 92.8228 116.121 81.7633 116.121C75.519 116.121 68.1734 116.107 59.9511 116.08C53.3374 116.059 46.3267 116.03 39.1126 115.995C33.343 115.968 27.7716 115.938 22.6072 115.909C20.7996 115.898 19.1721 115.889 17.7506 115.88C17.2531 115.877 16.9623 115.876 16.4452 115.872C16.0704 115.87 16.0704 115.87 15.9928 115.87L17.0988 116.99ZM14.8657 118.088L15.9787 118.095C16.0564 118.096 16.0564 118.096 16.4315 118.098C16.9487 118.101 17.2395 118.103 17.7371 118.106C19.1589 118.115 20.7867 118.124 22.5945 118.135C27.7595 118.164 33.3316 118.194 39.102 118.221C46.3171 118.256 53.3289 118.285 59.9439 118.306C68.1684 118.333 75.5163 118.347 81.7633 118.347C93.5203 118.347 99.7048 116.3 102.769 111.297C105.279 107.198 105.588 103.235 105.335 89.1646C105.272 85.6689 105.246 83.597 105.246 81.1999V2.54818V1.43518H104.133H36.0335C23.7886 1.43518 19.37 2.71806 16.8774 8.08498C15.6315 10.7677 15.0294 14.4818 14.811 20.2198C14.6427 24.6421 14.6603 27.0793 14.878 41.5255C14.9948 49.2709 15.0492 54.8037 15.0492 61.1377C15.0492 73.4523 15.0161 86.5609 14.961 99.6123C14.9417 104.18 14.921 108.415 14.9004 112.21C14.8931 113.538 14.8864 114.716 14.8804 115.731C14.877 116.293 14.877 116.293 14.8748 116.658C14.8732 116.921 14.8657 118.088 14.8657 118.088Z" fill="#5E000E"/>
<defs>
<linearGradient id="paint0_linear_2051_683" x1="83.8577" y1="65.8815" x2="104.996" y2="65.4796" gradientUnits="userSpaceOnUse">
<stop stop-color="white"/>
<stop offset="1" stop-color="#C0815E"/>
</linearGradient>
<radialGradient id="paint1_radial_2051_683" cx="0" cy="0" r="1" gradientUnits="userSpaceOnUse" gradientTransform="translate(68.9323 59.5268) scale(35.8611 57.172)">
<stop stop-color="white"/>
<stop offset="1" stop-color="#A94436"/>
</radialGradient>
</defs>
</svg>
