<svg width="120" height="120" viewBox="0 0 120 120" fill="none" xmlns="http://www.w3.org/2000/svg">
<path d="M98.6641 41.1673C97.4192 40.7389 96.1293 40.3334 94.8012 39.95C95.0195 39.0591 95.2198 38.1797 95.3979 37.3153C98.3221 23.121 96.4102 11.6861 89.8816 7.92117C83.6214 4.31114 73.3834 8.07517 63.0436 17.0736C62.0493 17.9389 61.0522 18.8551 60.0555 19.8152C59.3915 19.1799 58.7285 18.5661 58.0672 17.9789C47.2307 8.35712 36.3688 4.30238 29.8465 8.07816C23.5924 11.6987 21.7403 22.4486 24.3724 35.9006C24.6266 37.2 24.9237 38.5268 25.2597 39.8759C23.7225 40.3123 22.2384 40.7775 20.8184 41.2724C8.11375 45.7018 0 52.6438 0 59.8444C0 67.2812 8.71012 74.7405 21.943 79.2635C22.9872 79.6204 24.0708 79.9579 25.1875 80.2783C24.825 81.7374 24.5098 83.1672 24.2451 84.5618C21.7353 97.7803 23.6953 108.276 29.9328 111.874C36.3756 115.589 47.1884 111.77 57.7173 102.567C58.5495 101.839 59.3846 101.068 60.2213 100.259C61.3057 101.303 62.3885 102.292 63.4654 103.219C73.6639 111.995 83.7365 115.539 89.9683 111.931C96.4046 108.205 98.4964 96.9297 95.7807 83.2116C95.5733 82.1639 95.3319 81.0936 95.0609 80.0042C95.8202 79.7797 96.5657 79.548 97.2926 79.307C111.049 74.7491 120 67.3806 120 59.8444C120 52.6177 111.625 45.629 98.6641 41.1673ZM95.6803 74.441C95.0242 74.6583 94.3509 74.8682 93.6648 75.0718C92.1461 70.2639 90.0964 65.1514 87.5882 59.8694C89.9817 54.7131 91.9522 49.666 93.4284 44.8893C94.6559 45.2445 95.8474 45.6191 96.9955 46.0145C108.1 49.8373 114.874 55.4893 114.874 59.8444C114.874 64.4833 107.558 70.5053 95.6803 74.441ZM90.7518 84.2072C91.9526 90.2732 92.1241 95.7575 91.3287 100.045C90.614 103.897 89.1767 106.466 87.3995 107.495C83.6178 109.683 75.5305 106.838 66.8087 99.3327C65.8088 98.4724 64.8017 97.5537 63.7914 96.5814C67.1726 92.8833 70.552 88.5843 73.8502 83.8097C79.6513 83.2949 85.132 82.4533 90.1022 81.3044C90.347 82.2919 90.5644 83.2603 90.7518 84.2072ZM40.9107 107.116C37.2159 108.421 34.2731 108.459 32.4943 107.433C28.7091 105.25 27.1355 96.8223 29.282 85.5178C29.5278 84.2232 29.8205 82.8933 30.1577 81.534C35.0735 82.621 40.5141 83.4032 46.3291 83.8746C49.6495 88.5467 53.1264 92.841 56.6303 96.6012C55.8647 97.3403 55.1022 98.0439 54.3439 98.7069C49.6881 102.777 45.0225 105.664 40.9107 107.116ZM23.6009 74.4126C17.7496 72.4127 12.9174 69.8134 9.60509 66.9771C6.62881 64.4282 5.12615 61.8977 5.12615 59.8444C5.12615 55.4748 11.6407 49.9014 22.5058 46.1132C23.8241 45.6535 25.2042 45.2204 26.6364 44.8135C28.138 49.698 30.1078 54.8049 32.4849 59.9691C30.077 65.21 28.0792 70.3983 26.5629 75.3401C25.5419 75.0466 24.5527 74.7377 23.6009 74.4126ZM29.4033 34.9162C27.1481 23.3908 28.6459 14.6965 32.4148 12.5148C36.4294 10.1907 45.3068 13.5044 54.6632 21.8123C55.2613 22.3433 55.8617 22.8991 56.4639 23.4741C52.9773 27.2179 49.5322 31.48 46.2413 36.1245C40.5976 36.6476 35.1952 37.4879 30.2282 38.6131C29.916 37.3569 29.6393 36.1228 29.4033 34.9162ZM81.1659 47.6977C79.9785 45.6467 78.7595 43.6442 77.5168 41.6964C81.3455 42.1804 85.0139 42.8229 88.4588 43.6092C87.4245 46.9238 86.1355 50.3894 84.6181 53.9422C83.5296 51.8757 82.3783 49.792 81.1659 47.6977ZM60.0572 27.1378C62.4218 29.6994 64.7897 32.5595 67.1188 35.6627C64.7718 35.5518 62.3957 35.4942 60 35.4942C57.6269 35.4942 55.2684 35.5505 52.9359 35.6595C55.2673 32.5852 57.6558 29.7289 60.0572 27.1378ZM38.8134 47.7331C37.6273 49.7899 36.4973 51.8622 35.4259 53.9384C33.9331 50.398 32.656 46.9165 31.6128 43.5549C35.0365 42.7888 38.6876 42.1623 42.492 41.6874C41.2318 43.6532 40.0027 45.6704 38.8134 47.7327V47.7331ZM42.6016 78.367C38.6709 77.9285 34.965 77.3342 31.5421 76.5892C32.6019 73.1676 33.9072 69.6118 35.4317 65.9952C36.5059 68.0698 37.6403 70.143 38.8337 72.2042H38.8339C40.0495 74.3041 41.3089 76.3611 42.6016 78.367ZM60.1991 92.9124C57.7694 90.2909 55.3459 87.3911 52.979 84.2719C55.2767 84.362 57.6192 84.4082 60 84.4082C62.4459 84.4082 64.8638 84.3531 67.2438 84.2471C64.907 87.4225 62.5476 90.3268 60.1991 92.9124ZM84.667 65.8108C86.2709 69.4666 87.623 73.0037 88.6965 76.3671C85.2172 77.1608 81.4607 77.8001 77.5027 78.2751C78.7484 76.3011 79.9781 74.2642 81.1864 72.169C82.4088 70.0492 83.5695 67.9263 84.667 65.8108ZM76.7459 69.608C74.8701 72.8604 72.9443 75.9653 70.9892 78.8961C67.4283 79.1507 63.7495 79.2818 60 79.2818C56.2657 79.2818 52.6332 79.1658 49.1353 78.9388C47.1014 75.9696 45.1338 72.8555 43.2699 69.6359H43.2703C41.4114 66.4251 39.7005 63.1872 38.1502 59.9674C39.7 56.7401 41.4065 53.4986 43.2547 50.2935L43.2543 50.2942C45.1075 47.0806 47.0579 43.9817 49.0729 41.0311C52.6418 40.7613 56.3013 40.6205 59.9998 40.6205H60C63.7151 40.6205 67.3794 40.7623 70.9471 41.0345C72.9315 43.9635 74.8686 47.0524 76.729 50.2664C78.6106 53.5165 80.3391 56.7365 81.9022 59.8946C80.3438 63.1069 78.6192 66.3593 76.7459 69.608ZM87.3209 12.3623C91.3394 14.6796 92.9021 24.0254 90.3773 36.2806C90.2163 37.0626 90.0349 37.8591 89.838 38.6663C84.8594 37.5176 79.4533 36.6628 73.7931 36.1317C70.4958 31.4362 67.0789 27.1674 63.6491 23.4718C64.5712 22.5847 65.492 21.7388 66.409 20.9406C75.2682 13.2308 83.5484 10.1868 87.3209 12.3623ZM60 49.1288C65.918 49.1288 70.7156 53.9262 70.7156 59.8444C70.7156 65.7623 65.918 70.56 60 70.56C54.082 70.56 49.2844 65.7623 49.2844 59.8444C49.2844 53.9262 54.082 49.1288 60 49.1288Z" fill="#00D8FF"/>
</svg>
