<svg width="120" height="120" viewBox="0 0 120 120" fill="none" xmlns="http://www.w3.org/2000/svg">
<path fill-rule="evenodd" clip-rule="evenodd" d="M114.002 86.9454C107.749 90.2053 75.3516 103.526 68.4541 107.121C61.5574 110.717 57.7259 110.683 52.2773 108.078C46.8288 105.473 12.3526 91.5471 6.14243 88.5788C3.03823 87.0952 1.40625 85.8431 1.40625 84.6603V72.8152C1.40625 72.8152 46.2895 63.0441 53.5357 60.4446C60.7814 57.8449 63.2955 57.7512 69.4617 60.0099C75.6286 62.269 112.499 68.9213 118.594 71.1535C118.594 71.1535 118.591 81.7327 118.591 82.8309C118.592 84.0019 117.186 85.2865 114.002 86.9454Z" fill="#912626"/>
<path fill-rule="evenodd" clip-rule="evenodd" d="M114 75.1704C107.747 78.4287 75.3506 91.7496 68.4534 95.3449C61.557 98.9414 57.7254 98.9062 52.2771 96.3016C46.8284 93.6987 12.3537 79.7705 6.14372 76.8035C-0.0663024 73.8349 -0.196765 71.7921 5.90384 69.4034C12.004 67.0139 46.2895 53.5624 53.5364 50.963C60.7819 48.3642 63.2955 48.2693 69.4615 50.5289C75.6281 52.7876 107.831 65.6053 113.925 67.837C120.02 70.0713 120.254 71.9105 114 75.1704Z" fill="#C6302B"/>
<path fill-rule="evenodd" clip-rule="evenodd" d="M114.002 67.7793C107.749 71.0393 75.3516 84.3597 68.4541 87.9565C61.5574 91.5513 57.7259 91.5166 52.2773 88.9118C46.8284 86.3083 12.3526 72.3811 6.14243 69.4127C3.03823 67.9291 1.40625 66.6785 1.40625 65.4956V53.6491C1.40625 53.6491 46.2895 43.8783 53.5357 41.2786C60.7814 38.6793 63.2955 38.5851 69.4617 40.8438C75.6286 43.1029 112.499 49.754 118.594 51.9865C118.594 51.9865 118.591 62.5657 118.591 63.6654C118.592 64.8358 117.186 66.1204 114.002 67.7793Z" fill="#912626"/>
<path fill-rule="evenodd" clip-rule="evenodd" d="M114 56.0044C107.747 59.2636 75.3506 72.5836 68.4534 76.1801C61.557 79.7754 57.7254 79.7403 52.2771 77.1357C46.8284 74.5327 12.3537 60.6047 6.14372 57.6375C-0.0663024 54.6699 -0.196765 52.6264 5.90384 50.2369C12.004 47.8489 46.2895 34.3964 53.5364 31.7972C60.7819 29.1982 63.2955 29.1038 69.4615 31.3629C75.6281 33.6216 107.831 46.4384 113.925 48.6708C120.02 50.9044 120.254 52.7445 114 56.0039V56.0044Z" fill="#C6302B"/>
<path fill-rule="evenodd" clip-rule="evenodd" d="M114.002 47.9025C107.749 51.1624 75.3516 64.4831 68.4541 68.0798C61.5574 71.6754 57.7259 71.64 52.2773 69.0354C46.8284 66.4319 12.3526 52.504 6.14243 49.5368C3.03823 48.0527 1.40625 46.8014 1.40625 45.6194V33.7727C1.40625 33.7727 46.2895 24.0023 53.5357 21.4031C60.7814 18.8034 63.2955 18.7095 69.4617 20.9682C75.6286 23.2273 112.499 29.8784 118.594 32.111C118.594 32.111 118.591 42.6902 118.591 43.7894C118.592 44.959 117.186 46.2436 114.002 47.9025Z" fill="#912626"/>
<path fill-rule="evenodd" clip-rule="evenodd" d="M114 36.1273C107.747 39.3867 75.3506 52.7074 68.4534 56.3032C61.557 59.8985 57.7254 59.8634 52.2771 57.2595C46.8288 54.6558 12.3537 40.7288 6.14372 37.7611C-0.0663024 34.7935 -0.196765 32.7495 5.90384 30.3605C12.004 27.9717 46.2895 14.5209 53.5364 11.9208C60.7819 9.32118 63.2955 9.22781 69.4615 11.4869C75.6281 13.7459 107.831 26.5629 113.925 28.7953C120.02 31.0275 120.254 32.8681 114 36.1273Z" fill="#C6302B"/>
<path fill-rule="evenodd" clip-rule="evenodd" d="M74.3204 24.6044L64.2453 25.6505L61.9897 31.0774L58.3466 25.0214L46.7126 23.9758L55.3937 20.8453L52.7891 16.0397L60.9165 19.2183L68.5787 16.7097L66.5077 21.6788L74.3204 24.6044Z" fill="white"/>
<path fill-rule="evenodd" clip-rule="evenodd" d="M61.3877 50.9339L42.584 43.135L69.5287 38.9993L61.3877 50.9339Z" fill="white"/>
<path fill-rule="evenodd" clip-rule="evenodd" d="M35.3181 27.6208C43.2719 27.6208 49.7195 30.1205 49.7195 33.2032C49.7195 36.2864 43.2719 38.7855 35.3181 38.7855C27.3648 38.7855 20.9167 36.2864 20.9167 33.2032C20.9167 30.1205 27.3648 27.6208 35.3181 27.6208Z" fill="white"/>
<path fill-rule="evenodd" clip-rule="evenodd" d="M86.2275 26.0878L102.174 32.3897L86.2411 38.685L86.2275 26.0878Z" fill="#621B1C"/>
<path fill-rule="evenodd" clip-rule="evenodd" d="M68.5852 33.0663L86.2275 26.0878L86.2411 38.685L84.5115 39.3619L68.5852 33.0663Z" fill="#9A2928"/>
</svg>
