<svg width="120" height="120" viewBox="0 0 120 120" fill="none" xmlns="http://www.w3.org/2000/svg">
<g clip-path="url(#clip0_2051_979)">
<path d="M9.375 0H110.625C115.803 0 120 4.19733 120 9.375V110.625C120 115.803 115.803 120 110.625 120H9.375C4.19733 120 0 115.803 0 110.625V9.375C0 4.19733 4.19733 0 9.375 0Z" fill="#3178C6"/>
<path d="M70.5553 93.9727V106.92C72.6609 107.999 75.1514 108.808 78.0262 109.347C80.9011 109.887 83.9311 110.156 87.1167 110.156C90.2208 110.156 93.1702 109.86 95.9639 109.266C98.7577 108.673 101.208 107.695 103.313 106.333C105.419 104.971 107.085 103.191 108.314 100.992C109.542 98.7942 110.156 96.0769 110.156 92.8402C110.156 90.4936 109.805 88.4367 109.103 86.67C108.402 84.9033 107.389 83.332 106.066 81.9567C104.744 80.5809 103.158 79.3472 101.309 78.2545C99.4598 77.1623 97.3744 76.1306 95.0527 75.1598C93.352 74.4581 91.8272 73.7775 90.4772 73.1166C89.1277 72.4556 87.9802 71.7816 87.0356 71.0934C86.0906 70.4058 85.3617 69.6773 84.8489 68.9086C84.3361 68.1398 84.0797 67.2703 84.0797 66.2991C84.0797 65.4089 84.3089 64.6069 84.7678 63.892C85.2267 63.1772 85.875 62.5636 86.7117 62.0513C87.5484 61.5384 88.5741 61.1409 89.7891 60.8573C91.0036 60.5742 92.3536 60.4327 93.8381 60.4327C94.9181 60.4327 96.0586 60.5137 97.2595 60.6755C98.4609 60.8372 99.6689 61.0866 100.884 61.4241C102.098 61.7611 103.279 62.1858 104.427 62.6986C105.574 63.2109 106.634 63.8044 107.605 64.4784V52.3814C105.635 51.6263 103.482 51.0666 101.147 50.7023C98.812 50.3381 96.1327 50.1562 93.1092 50.1562C90.0319 50.1562 87.1167 50.4867 84.3633 51.1477C81.6098 51.8081 79.1869 52.8398 77.0948 54.2423C75.0028 55.6453 73.3495 57.4322 72.1345 59.6034C70.92 61.7747 70.3125 64.3706 70.3125 67.3917C70.3125 71.2486 71.4258 74.5392 73.6533 77.2636C75.8803 79.9875 79.2609 82.2937 83.7961 84.1819C85.5778 84.9103 87.2381 85.6247 88.7766 86.3264C90.3155 87.0277 91.6448 87.7556 92.7652 88.5108C93.8855 89.2659 94.7695 90.0886 95.4173 90.9787C96.0652 91.8689 96.3891 92.8805 96.3891 94.0134C96.3891 94.8492 96.1866 95.625 95.7816 96.3398C95.377 97.0542 94.7625 97.6748 93.9394 98.2008C93.1163 98.7267 92.0902 99.1378 90.862 99.4345C89.6339 99.7313 88.1963 99.8798 86.5495 99.8798C83.7422 99.8798 80.962 99.3877 78.2086 98.4028C75.4547 97.4184 72.9038 95.9419 70.5553 93.9727ZM48.9759 61.7541H65.625V51.0938H19.2188V61.7541H35.7866V109.219H48.9759V61.7541Z" fill="white"/>
</g>
<defs>
<clipPath id="clip0_2051_979">
<rect width="120" height="120" fill="white"/>
</clipPath>
</defs>
</svg>
