<svg xmlns="http://www.w3.org/2000/svg" viewBox="0 35 160 90">
    <defs>
        <style>
        .cls-1 {
            fill: none;
            stroke: #fff;
            stroke-miterlimit: 10;
            stroke-width: 14px;
        }
        </style>
    </defs>
    <g id="Mirror">
        <polyline class="cls-1" points="62 41 12 80 62 119"/>
        <polyline class="cls-1" points="98 41 148 80 98 119"/>
    </g>
    <g id="TEXT">
        <g>
        <path class="text" d="M36.31,101.54v-45.81h23.59c4.38,0,7.72.38,10.03,1.12s4.18,2.14,5.59,4.17c1.42,2.03,2.12,4.51,2.12,7.42,0,2.54-.54,4.73-1.63,6.58s-2.57,3.34-4.47,4.48c-1.21.73-2.87,1.33-4.97,1.81,1.69.56,2.91,1.13,3.69,1.69.52.38,1.27,1.18,2.26,2.41.99,1.23,1.65,2.18,1.98,2.85l6.86,13.28h-16l-7.57-14c-.96-1.81-1.81-2.99-2.56-3.53-1.02-.71-2.18-1.06-3.47-1.06h-1.25v18.59h-14.22ZM50.52,74.29h5.97c.65,0,1.9-.21,3.75-.62.94-.19,1.7-.67,2.3-1.44.59-.77.89-1.66.89-2.66,0-1.48-.47-2.61-1.41-3.41-.94-.79-2.7-1.19-5.28-1.19h-6.22v9.31Z"/>
        <path class="text" d="M102.97,84.95v-9.53h21.88v19.53c-4.19,2.85-7.89,4.8-11.11,5.83s-7.04,1.55-11.45,1.55c-5.44,0-9.87-.93-13.3-2.78-3.43-1.85-6.08-4.62-7.97-8.28-1.89-3.67-2.83-7.88-2.83-12.63,0-5,1.03-9.35,3.09-13.05,2.06-3.7,5.08-6.5,9.06-8.42,3.1-1.48,7.28-2.22,12.53-2.22s8.85.46,11.36,1.38c2.51.92,4.59,2.34,6.25,4.27,1.66,1.93,2.9,4.37,3.73,7.33l-13.66,2.44c-.56-1.73-1.52-3.05-2.86-3.97-1.34-.92-3.06-1.38-5.14-1.38-3.1,0-5.58,1.08-7.42,3.23s-2.77,5.57-2.77,10.23c0,4.96.93,8.5,2.8,10.63,1.87,2.12,4.46,3.19,7.8,3.19,1.58,0,3.09-.23,4.53-.69,1.44-.46,3.08-1.24,4.94-2.34v-4.31h-9.47Z"/>
        </g>
    </g>
</svg>